<?xml version="1.0" encoding="UTF-8"?>
<svg id="Layer_1" data-name="Layer 1" xmlns="http://www.w3.org/2000/svg" xmlns:xlink="http://www.w3.org/1999/xlink" viewBox="0 0 1080 1080">
  <defs>
    <style>
      .cls-1 {
        fill: url(#linear-gradient-4);
      }

      .cls-2 {
        fill: url(#linear-gradient-3);
      }

      .cls-3 {
        fill: url(#linear-gradient-2);
      }

      .cls-4 {
        fill: url(#linear-gradient);
      }
    </style>
    <linearGradient id="linear-gradient" x1="336.64" y1="473.88" x2="799.73" y2="473.88" gradientUnits="userSpaceOnUse">
      <stop offset="0" stop-color="#8c4c9d"/>
      <stop offset="1" stop-color="#f05e38"/>
    </linearGradient>
    <linearGradient id="linear-gradient-2" x1="219.2" y1="726.21" x2="860.8" y2="726.21" xlink:href="#linear-gradient"/>
    <linearGradient id="linear-gradient-3" x1="330.25" y1="446.19" x2="442.11" y2="446.19" xlink:href="#linear-gradient"/>
    <linearGradient id="linear-gradient-4" x1="716.17" y1="458.4" x2="829.41" y2="458.4" xlink:href="#linear-gradient"/>
  </defs>
  <path class="cls-4" d="M503.51,191.39c76.9-.21,154.88.58,232.28.57,22.11,0,44.78-1.75,57.93,20.26,14.59,24.43-.23,51.39-14.12,72.25-22.07,33.15-48.1,65.56-71.44,98.05-63.38,88.2-129.22,177.11-189.47,267.32-2.77,4.15-12.2,16.92-12.63,20.9-.52,4.81,14.23,6.76,17.74,7.01,26.45,1.92,57.7-12.8,77.11-30.01,15.88-14.08,35.21-42.21,59.61-23.18,31,24.17,8.92,65.5-14.03,86.29-38.84,35.18-94.58,49.38-146.25,45.22-41.45-3.33-109.02-14.03-104.45-69.55,1.26-15.27,10.81-29.36,19.12-41.69,79.74-118.23,166.66-231.71,247.38-349.27,3.21-4.68,18.46-25.71,18.35-29.56-.11-4.01-6.64-1.85-8.69-1.82-59.24.94-118.76-1.46-177.81,1.48-14.04.7-25.53.26-38.37,7.22-25.66,13.91-27.87,53.73-64.91,56.68-69.9,5.57-68.14-93.81-18.11-123.81,31.47-18.88,93.83-14.27,130.74-14.37Z"/>
  <path class="cls-3" d="M274.81,563.92c16.06-2.18,31.51,2.06,40.01,16.59,8.57,14.65,3.81,29.23-6.24,41.49,30.87,80.08,90.56,153.77,176.85,175.52,119.87,30.22,228.84-34.65,278.71-143.05,7.16-15.58,15.1-48.91,25.92-59.21,20.74-19.76,57.94-11.18,68.21,15.41,10.86,28.09-15.69,80.03-30.07,104.87-85.21,147.15-243.47,216.28-405.56,145.6-89.62-39.08-151.87-118.75-181.45-210.72-9.55-2.69-16.03-5.36-19.73-15.23-11.63-31.04,24.29-67.32,53.37-71.26Z"/>
  <path class="cls-2" d="M378.91,389.84c80.74-8.24,84.29,109.76,9.65,113.05-71.92,3.17-79.82-105.89-9.65-113.05Z"/>
  <path class="cls-1" d="M767.13,402.01c36.21-3.15,67.73,27.98,61.5,64.59-8.44,49.59-69.87,65.94-100.83,26.02-26.93-34.72-4.3-86.81,39.33-90.61Z"/>
</svg>